<svg width="30" height="30" viewBox="0 0 30 30" fill="none" xmlns="http://www.w3.org/2000/svg">
<path d="M14.78 29.12C22.8213 29.12 29.34 22.6013 29.34 14.56C29.34 6.51873 22.8213 0 14.78 0C6.73874 0 0.220001 6.51873 0.220001 14.56C0.220001 22.6013 6.73874 29.12 14.78 29.12Z" fill="white"/>
<path d="M10.5064 7.96259C11.1342 7.96259 11.7073 8.0185 12.2256 8.12915C12.7439 8.23981 13.1866 8.42152 13.5558 8.67428C13.9251 8.92704 14.2116 9.2625 14.4154 9.68183C14.6193 10.1012 14.7206 10.6183 14.7206 11.2345C14.7206 11.8996 14.5692 12.4541 14.2675 12.8978C13.9658 13.3416 13.5185 13.7051 12.928 13.9881C13.741 14.2222 14.3479 14.6322 14.7486 15.217C15.1493 15.8017 15.3496 16.5076 15.3496 17.3334C15.3496 17.9985 15.2203 18.5751 14.9617 19.062C14.7031 19.5489 14.3549 19.946 13.9169 20.2536C13.4789 20.5622 12.9804 20.7894 12.4201 20.9373C11.8564 21.0852 11.2751 21.1598 10.6927 21.1586H4.29681V7.96259H10.5064ZM10.1371 13.3032C10.6543 13.3032 11.0794 13.1797 11.4126 12.934C11.7457 12.687 11.9123 12.2875 11.9111 11.733C11.9111 11.4255 11.8552 11.1728 11.7445 10.9759C11.6339 10.7791 11.486 10.6242 11.3008 10.5135C11.1156 10.4028 10.9036 10.326 10.6636 10.2829C10.4167 10.2398 10.1662 10.2176 9.91464 10.2188H7.1995V13.3055L10.1371 13.3032V13.3032ZM10.3037 18.9024C10.5774 18.9036 10.85 18.8756 11.1167 18.8197C11.3753 18.7638 11.6036 18.6718 11.8005 18.5425C11.9973 18.4132 12.1546 18.2373 12.2722 18.016C12.3887 17.7947 12.4481 17.5105 12.4481 17.1657C12.4481 16.4889 12.2571 16.0044 11.875 15.7155C11.4929 15.4255 10.9874 15.281 10.3596 15.281H7.1995V18.9036L10.3037 18.9024V18.9024ZM19.0001 18.6252C19.3938 19.0072 19.961 19.1982 20.7007 19.1982C21.2307 19.1982 21.6861 19.0655 22.0682 18.801C22.4502 18.5366 22.6843 18.2559 22.7705 17.9601H25.0803C24.7111 19.1062 24.1438 19.9251 23.3797 20.4178C22.6156 20.9105 21.6919 21.1574 20.6075 21.1574C19.8562 21.1574 19.1783 21.0375 18.5749 20.7975C17.9716 20.5576 17.4602 20.2151 17.0409 19.7713C16.6216 19.3275 16.2978 18.7987 16.0706 18.1825C15.8435 17.5664 15.7293 16.8884 15.7293 16.15C15.7293 15.4359 15.8458 14.7708 16.0799 14.1547C16.3141 13.5385 16.6472 13.0062 17.0782 12.5566C17.5091 12.1069 18.024 11.7528 18.6215 11.4943C19.2191 11.2357 19.8818 11.1064 20.6087 11.1064C21.4217 11.1064 22.1299 11.2636 22.7344 11.5781C23.3378 11.8926 23.834 12.3143 24.2219 12.8443C24.6098 13.3742 24.8905 13.9776 25.0629 14.6555C25.2353 15.3334 25.297 16.0416 25.2481 16.7813H18.3548C18.3909 17.6281 18.6064 18.2443 19.0001 18.6252ZM21.9668 13.5991C21.6523 13.2543 21.1748 13.0819 20.5341 13.0819C20.1148 13.0819 19.7665 13.1529 19.4905 13.2939C19.2132 13.436 18.9919 13.6107 18.8254 13.8204C18.6588 14.03 18.5423 14.2513 18.4748 14.4855C18.4072 14.7196 18.3664 14.9293 18.3548 15.1133H22.6238C22.4991 14.4494 22.2802 13.9438 21.9668 13.5991V13.5991ZM17.9052 8.63235H23.2388V10.1116H17.9052V8.63235V8.63235Z" fill="#FF8500"/>
</svg>
