<svg width="30" height="30" viewBox="0 0 30 30" fill="none" xmlns="http://www.w3.org/2000/svg">
<path d="M29.12 14.56C29.119 11.7776 28.3207 9.05377 26.8197 6.71095C25.3187 4.36814 23.1778 2.50446 20.6506 1.34055C18.1233 0.17665 15.3155 -0.238739 12.5595 0.143564C9.80344 0.525867 7.21468 1.68985 5.09964 3.49772C2.9846 5.30558 1.43186 7.68162 0.625248 10.3445C-0.181368 13.0075 -0.208083 15.8457 0.548266 18.5234C1.30462 21.201 2.81235 23.6058 4.89299 25.4532C6.97362 27.3005 9.54002 28.5131 12.2883 28.9472V18.7659H8.58456V14.56H12.2883V11.3501C12.2883 7.70389 14.4612 5.68738 17.7864 5.68738C18.8895 5.70156 19.9899 5.79785 21.0787 5.97545V9.55578H19.2103C18.8973 9.51388 18.5789 9.54286 18.2786 9.6406C17.9783 9.73833 17.7038 9.90231 17.4755 10.1204C17.2471 10.3385 17.0707 10.6052 16.9592 10.9006C16.8478 11.1961 16.8042 11.5128 16.8317 11.8274V14.56H20.8729L20.2309 18.7659H16.8317V28.9472C20.2572 28.4044 23.3768 26.6573 25.6293 24.02C27.8819 21.3827 29.1196 18.0283 29.12 14.56Z" fill="white"/>
<path d="M20.2309 18.7659L20.8729 14.56H16.8317V11.8274C16.8042 11.5128 16.8478 11.1961 16.9592 10.9006C17.0707 10.6052 17.2471 10.3385 17.4755 10.1204C17.7039 9.90231 17.9783 9.73833 18.2786 9.64059C18.5789 9.54286 18.8973 9.51387 19.2103 9.55578H21.0457V5.97545C19.957 5.79785 18.8565 5.70155 17.7535 5.68738C14.4612 5.68738 12.2554 7.70388 12.2554 11.3501V14.56H8.55164V18.7659H12.2554V28.9472C13.7611 29.1776 15.2931 29.1776 16.7987 28.9472V18.7659H20.2309Z" fill="#FF8500"/>
</svg>
