<svg width="30" height="30" viewBox="0 0 30 30" fill="none" xmlns="http://www.w3.org/2000/svg">
<path d="M15.22 29.12C23.2613 29.12 29.78 22.6013 29.78 14.56C29.78 6.51873 23.2613 0 15.22 0C7.17874 0 0.660004 6.51873 0.660004 14.56C0.660004 22.6013 7.17874 29.12 15.22 29.12Z" fill="white"/>
<path d="M19.7386 9.05371C19.5397 9.05372 19.3452 9.11283 19.1799 9.22353C19.0146 9.33423 18.8859 9.49155 18.8102 9.67551C18.7344 9.85947 18.715 10.0618 18.7544 10.2568C18.7938 10.4518 18.8903 10.6307 19.0316 10.7708C19.1728 10.9109 19.3525 11.0059 19.5478 11.0437C19.7432 11.0815 19.9453 11.0604 20.1286 10.9832C20.312 10.9059 20.4682 10.7759 20.5776 10.6097C20.6869 10.4435 20.7444 10.2486 20.7428 10.0496C20.7428 9.91814 20.7167 9.78796 20.6662 9.66659C20.6156 9.54523 20.5415 9.43507 20.4482 9.34248C20.3548 9.2499 20.2441 9.17671 20.1223 9.12715C20.0005 9.07759 19.8701 9.05263 19.7386 9.05371Z" fill="#FF8500"/>
<path d="M15.2941 10.3377C14.4619 10.3361 13.6479 10.5813 12.9552 11.0425C12.2625 11.5036 11.7221 12.1599 11.4025 12.9283C11.0829 13.6967 10.9984 14.5426 11.1598 15.359C11.3212 16.1754 11.7211 16.9256 12.3089 17.5146C12.8968 18.1036 13.6462 18.505 14.4623 18.668C15.2784 18.8309 16.1245 18.7481 16.8934 18.43C17.6624 18.1119 18.3198 17.5729 18.7823 16.881C19.2448 16.1892 19.4917 15.3757 19.4917 14.5435C19.4917 13.4295 19.0497 12.361 18.2627 11.5725C17.4758 10.7839 16.4081 10.3399 15.2941 10.3377ZM15.2941 17.235C14.7594 17.2366 14.2364 17.0794 13.7911 16.7834C13.3459 16.4874 12.9986 16.0659 12.7933 15.5722C12.5879 15.0786 12.5338 14.5351 12.6377 14.0107C12.7416 13.4862 12.9989 13.0044 13.3769 12.6264C13.755 12.2483 14.2367 11.9911 14.7612 11.8871C15.2856 11.7832 15.8291 11.8374 16.3228 12.0427C16.8164 12.2481 17.2379 12.5954 17.534 13.0406C17.83 13.4858 17.9871 14.0089 17.9855 14.5435C17.9833 15.2567 17.6991 15.94 17.1948 16.4443C16.6905 16.9485 16.0072 17.2328 15.2941 17.235Z" fill="#FF8500"/>
<path d="M18.6275 23.0458H11.8125C10.4533 23.0436 9.15027 22.5027 8.18911 21.5415C7.22796 20.5803 6.68702 19.2774 6.68484 17.9181V11.136C6.68484 9.77534 7.22482 8.47024 8.18621 7.5073C9.1476 6.54437 10.4518 6.0023 11.8125 6.00012H18.6275C19.9882 6.0023 21.2924 6.54437 22.2538 7.5073C23.2152 8.47024 23.7552 9.77534 23.7552 11.136V17.951C23.7443 19.3046 23.1996 20.5991 22.2394 21.5532C21.2791 22.5072 19.9811 23.0436 18.6275 23.0458ZM11.8125 7.61333C10.8783 7.61333 9.98224 7.98447 9.3216 8.64511C8.66096 9.30574 8.28982 10.2018 8.28982 11.136V17.951C8.28982 18.8853 8.66096 19.7813 9.3216 20.4419C9.98224 21.1026 10.8783 21.4737 11.8125 21.4737H18.6275C19.5618 21.4737 20.4578 21.1026 21.1184 20.4419C21.7791 19.7813 22.1502 18.8853 22.1502 17.951V11.136C22.1502 10.2018 21.7791 9.30574 21.1184 8.64511C20.4578 7.98447 19.5618 7.61333 18.6275 7.61333H11.8125Z" fill="#FF8500"/>
</svg>
