<svg width="30" height="30" viewBox="0 0 30 30" fill="none" xmlns="http://www.w3.org/2000/svg">
<path d="M15 29.12C6.93943 29.12 0.440002 22.6206 0.440002 14.56C0.440002 6.49943 6.93943 0 15 0C23.0606 0 29.56 6.53129 29.56 14.56C29.56 22.6206 23.0606 29.12 15 29.12Z" fill="white"/>
<path d="M7.69142 6.32379H7.43999C6.59142 6.32379 5.89999 7.01522 5.89999 7.86379C5.89999 8.71236 6.59142 9.40379 7.43999 9.40379H7.69142C8.53999 9.40379 9.23142 8.71236 9.23142 7.86379C9.23142 7.01522 8.57142 6.32379 7.69142 6.32379Z" fill="#FF8500"/>
<path d="M9.23142 10.221H5.89999V22.8553H9.23142V10.221Z" fill="#FF8500"/>
<path d="M24.0028 12.7666C23.8771 12.2324 23.6571 11.7609 23.3428 11.3524C23.0286 10.9438 22.5571 10.5981 21.96 10.3467C21.3628 10.0952 20.6714 9.93808 19.9486 9.93808C18.2828 9.93808 16.8686 10.6609 15.7686 12.0752V10.2209H12.6571V22.8552H15.9886V17.1352C15.9886 15.7209 16.0828 14.7466 16.24 14.2438C16.3971 13.7095 16.7114 13.3009 17.1828 12.9866C17.6543 12.6724 18.1571 12.5152 18.7543 12.5152C19.1943 12.5152 19.6028 12.6409 19.9171 12.8609C20.2314 13.0809 20.4828 13.3952 20.6086 13.8038C20.7657 14.2124 20.8286 15.0924 20.8286 16.4438V22.8866H24.16V15.0295C24.1914 14.0238 24.1286 13.2695 24.0028 12.7666Z" fill="#FF8500"/>
</svg>
