<svg width="30" height="30" viewBox="0 0 30 30" fill="none" xmlns="http://www.w3.org/2000/svg">
<path d="M15.44 29.12C23.4813 29.12 30 22.6013 30 14.56C30 6.51873 23.4813 0 15.44 0C7.39874 0 0.880005 6.51873 0.880005 14.56C0.880005 22.6013 7.39874 29.12 15.44 29.12Z" fill="white"/>
<path d="M23.4896 9.57224C22.962 9.79315 22.4091 9.94796 21.8434 10.0332C22.1068 9.98377 22.4854 9.51463 22.6665 9.33355C22.9077 9.04555 23.0895 8.71268 23.2015 8.35411C23.2109 8.34243 23.2159 8.32792 23.2159 8.31296C23.2159 8.298 23.2109 8.28348 23.2015 8.2718C23.1872 8.26569 23.1718 8.26254 23.1562 8.26254C23.1407 8.26254 23.1253 8.26569 23.111 8.2718C22.5124 8.61087 21.8736 8.87356 21.2097 9.05371C21.19 9.06614 21.1671 9.07274 21.1438 9.07274C21.1205 9.07274 21.0977 9.06614 21.078 9.05371L20.9134 8.8891C20.6446 8.62019 20.3331 8.39769 19.9916 8.23065C19.5418 8.05252 19.0589 7.9739 18.5759 8.00019C18.1076 8.03375 17.6511 8.16259 17.2343 8.3788C16.8167 8.59996 16.4473 8.90215 16.1478 9.26771C15.8479 9.63461 15.6321 10.0628 15.5155 10.5221C15.3989 10.9814 15.3844 11.4607 15.4729 11.9262C15.4729 12.0085 15.4729 12.0167 15.4071 12.0085C12.8926 11.7624 10.5599 10.5887 8.86373 8.71626C8.78143 8.62572 8.74027 8.62572 8.68266 8.71626C8.33862 9.34169 8.20717 10.062 8.30812 10.7686C8.40907 11.4753 8.73694 12.13 9.24234 12.634C9.37403 12.7575 9.50572 12.881 9.64564 12.988C9.2067 12.9539 8.77878 12.8336 8.38636 12.634C8.28759 12.56 8.28759 12.5929 8.28759 12.6752C8.27586 12.8011 8.27586 12.9279 8.28759 13.0538C8.36472 13.6425 8.59656 14.2002 8.95947 14.6701C9.32239 15.14 9.80339 15.5053 10.3535 15.7288C10.4895 15.7823 10.6299 15.8236 10.7732 15.8522C10.362 15.923 9.94166 15.923 9.53041 15.8522C9.43988 15.8522 9.40695 15.8522 9.43988 15.9674C9.65241 16.5212 10.0029 17.0115 10.4581 17.3917C10.9133 17.772 11.458 18.0297 12.0408 18.1403L12.4029 18.1897C11.8958 18.643 11.2854 18.9651 10.6251 19.128C9.7613 19.4392 8.83977 19.5572 7.92544 19.4737C7.78552 19.4737 7.7526 19.4737 7.71144 19.4737C7.67029 19.4737 7.71144 19.5313 7.7526 19.5725C7.9419 19.6959 8.12297 19.8029 8.31228 19.9099C8.88759 20.2147 9.49487 20.4548 10.123 20.626C11.7324 21.11 13.4405 21.1633 15.0769 20.7806C16.7133 20.3978 18.2206 19.5924 19.4483 18.4449C20.3322 17.4872 21.016 16.3627 21.4598 15.1374C21.9036 13.9121 22.0984 12.6105 22.0328 11.3089C22.0328 11.2019 22.148 11.1443 22.2221 11.0949C22.6894 10.7468 23.1075 10.3371 23.4649 9.87678C23.5206 9.80678 23.5498 9.7193 23.5472 9.62986C23.5472 9.53109 23.5472 9.53932 23.4896 9.57224Z" fill="#FF8500"/>
</svg>
